<mxfile host="app.diagrams.net" agent="Mozilla/5.0 (Windows NT 10.0; Win64; x64) AppleWebKit/537.36 (KHTML, like Gecko) Chrome/131.0.0.0 Safari/537.36" version="25.0.3">
  <diagram id="prtHgNgQTEPvFCAcTncT" name="Page-1">
    <mxGraphModel dx="753" dy="433" grid="1" gridSize="10" guides="1" tooltips="1" connect="1" arrows="1" fold="1" page="1" pageScale="1" pageWidth="827" pageHeight="1169" math="0" shadow="0">
      <root>
        <mxCell id="0" />
        <mxCell id="1" parent="0" />
        <mxCell id="hYAxBUHYTiUIS1AwMgqu-1" value="框架层" style="swimlane;horizontal=0;whiteSpace=wrap;html=1;startSize=40;" vertex="1" parent="1">
          <mxGeometry x="160" y="402" width="400" height="80" as="geometry" />
        </mxCell>
        <mxCell id="hYAxBUHYTiUIS1AwMgqu-2" value="HOS" style="text;html=1;align=center;verticalAlign=middle;resizable=0;points=[];autosize=1;strokeColor=none;fillColor=none;" vertex="1" parent="hYAxBUHYTiUIS1AwMgqu-1">
          <mxGeometry x="170" y="45" width="50" height="30" as="geometry" />
        </mxCell>
        <mxCell id="hYAxBUHYTiUIS1AwMgqu-3" value="his-mediway-parent" style="text;html=1;align=center;verticalAlign=middle;resizable=0;points=[];autosize=1;strokeColor=none;fillColor=none;" vertex="1" parent="hYAxBUHYTiUIS1AwMgqu-1">
          <mxGeometry x="80" y="5" width="130" height="30" as="geometry" />
        </mxCell>
        <mxCell id="hYAxBUHYTiUIS1AwMgqu-4" value="his-base" style="text;html=1;align=center;verticalAlign=middle;resizable=0;points=[];autosize=1;strokeColor=none;fillColor=none;" vertex="1" parent="hYAxBUHYTiUIS1AwMgqu-1">
          <mxGeometry x="230" y="5" width="70" height="30" as="geometry" />
        </mxCell>
        <mxCell id="hYAxBUHYTiUIS1AwMgqu-23" value="" style="line;strokeWidth=1;html=1;" vertex="1" parent="hYAxBUHYTiUIS1AwMgqu-1">
          <mxGeometry x="40" y="35" width="360" height="10" as="geometry" />
        </mxCell>
        <mxCell id="hYAxBUHYTiUIS1AwMgqu-16" style="edgeStyle=orthogonalEdgeStyle;rounded=0;orthogonalLoop=1;jettySize=auto;html=1;entryX=0.5;entryY=0;entryDx=0;entryDy=0;" edge="1" parent="1" source="hYAxBUHYTiUIS1AwMgqu-9" target="hYAxBUHYTiUIS1AwMgqu-5">
          <mxGeometry relative="1" as="geometry" />
        </mxCell>
        <mxCell id="hYAxBUHYTiUIS1AwMgqu-9" value="hisctsv , hiscfsv" style="rounded=0;whiteSpace=wrap;html=1;" vertex="1" parent="1">
          <mxGeometry x="280" y="240" width="160" height="40" as="geometry" />
        </mxCell>
        <mxCell id="hYAxBUHYTiUIS1AwMgqu-15" style="edgeStyle=orthogonalEdgeStyle;rounded=0;orthogonalLoop=1;jettySize=auto;html=1;" edge="1" parent="1" source="hYAxBUHYTiUIS1AwMgqu-10">
          <mxGeometry relative="1" as="geometry">
            <mxPoint x="360" y="240" as="targetPoint" />
          </mxGeometry>
        </mxCell>
        <mxCell id="hYAxBUHYTiUIS1AwMgqu-17" style="edgeStyle=orthogonalEdgeStyle;rounded=0;orthogonalLoop=1;jettySize=auto;html=1;" edge="1" parent="1" source="hYAxBUHYTiUIS1AwMgqu-10">
          <mxGeometry relative="1" as="geometry">
            <mxPoint x="240" y="320" as="targetPoint" />
          </mxGeometry>
        </mxCell>
        <mxCell id="hYAxBUHYTiUIS1AwMgqu-10" value="hisct , hiscf" style="rounded=0;whiteSpace=wrap;html=1;" vertex="1" parent="1">
          <mxGeometry x="160" y="160" width="160" height="40" as="geometry" />
        </mxCell>
        <mxCell id="hYAxBUHYTiUIS1AwMgqu-14" style="edgeStyle=orthogonalEdgeStyle;rounded=0;orthogonalLoop=1;jettySize=auto;html=1;entryX=0.5;entryY=0;entryDx=0;entryDy=0;exitX=0;exitY=0.5;exitDx=0;exitDy=0;" edge="1" parent="1" source="hYAxBUHYTiUIS1AwMgqu-11" target="hYAxBUHYTiUIS1AwMgqu-9">
          <mxGeometry relative="1" as="geometry" />
        </mxCell>
        <mxCell id="hYAxBUHYTiUIS1AwMgqu-18" style="edgeStyle=orthogonalEdgeStyle;rounded=0;orthogonalLoop=1;jettySize=auto;html=1;" edge="1" parent="1" source="hYAxBUHYTiUIS1AwMgqu-11">
          <mxGeometry relative="1" as="geometry">
            <mxPoint x="480" y="320" as="targetPoint" />
          </mxGeometry>
        </mxCell>
        <mxCell id="hYAxBUHYTiUIS1AwMgqu-11" value="his-mediway-boot" style="rounded=0;whiteSpace=wrap;html=1;" vertex="1" parent="1">
          <mxGeometry x="400" y="160" width="160" height="40" as="geometry" />
        </mxCell>
        <mxCell id="hYAxBUHYTiUIS1AwMgqu-19" value="&lt;span style=&quot;font-size:9.0pt;mso-bidi-font-size:10.0pt;&lt;br/&gt;font-family:等线;mso-ascii-theme-font:minor-latin;mso-fareast-theme-font:minor-fareast;&lt;br/&gt;mso-hansi-theme-font:minor-latin;mso-bidi-font-family:&amp;quot;Times New Roman&amp;quot;;&lt;br/&gt;mso-bidi-theme-font:minor-bidi;mso-ansi-language:EN-US;mso-fareast-language:&lt;br/&gt;ZH-CN;mso-bidi-language:AR-SA&quot;&gt;只是基础数据及配置界面对应的后台，可以单独部署成微服务，且启停不影响业务&lt;/span&gt;" style="whiteSpace=wrap;html=1;rounded=1;arcSize=50;align=center;verticalAlign=middle;strokeWidth=1;autosize=1;spacing=4;treeFolding=1;treeMoving=1;newEdgeStyle={&quot;edgeStyle&quot;:&quot;entityRelationEdgeStyle&quot;,&quot;startArrow&quot;:&quot;none&quot;,&quot;endArrow&quot;:&quot;none&quot;,&quot;segment&quot;:10,&quot;curved&quot;:1,&quot;sourcePerimeterSpacing&quot;:0,&quot;targetPerimeterSpacing&quot;:0};" vertex="1" parent="1">
          <mxGeometry y="50" width="260" height="100" as="geometry" />
        </mxCell>
        <mxCell id="hYAxBUHYTiUIS1AwMgqu-20" value="" style="edgeStyle=entityRelationEdgeStyle;startArrow=none;endArrow=none;segment=10;curved=1;sourcePerimeterSpacing=0;targetPerimeterSpacing=0;rounded=0;entryX=0;entryY=0.5;entryDx=0;entryDy=0;exitX=0.5;exitY=1;exitDx=0;exitDy=0;" edge="1" target="hYAxBUHYTiUIS1AwMgqu-10" parent="1" source="hYAxBUHYTiUIS1AwMgqu-19">
          <mxGeometry relative="1" as="geometry">
            <mxPoint x="70" y="200" as="sourcePoint" />
            <mxPoint x="200" y="173" as="targetPoint" />
            <Array as="points">
              <mxPoint x="200" y="228" />
              <mxPoint x="220" y="200" />
              <mxPoint x="180" y="218" />
              <mxPoint x="220" y="208" />
              <mxPoint x="180" y="228" />
            </Array>
          </mxGeometry>
        </mxCell>
        <mxCell id="hYAxBUHYTiUIS1AwMgqu-5" value="数据层" style="swimlane;horizontal=0;whiteSpace=wrap;html=1;startSize=40;" vertex="1" parent="1">
          <mxGeometry x="160" y="320" width="400" height="82" as="geometry" />
        </mxCell>
        <mxCell id="hYAxBUHYTiUIS1AwMgqu-7" value="po" style="text;html=1;align=center;verticalAlign=middle;resizable=0;points=[];autosize=1;strokeColor=none;fillColor=none;" vertex="1" parent="hYAxBUHYTiUIS1AwMgqu-5">
          <mxGeometry x="240" y="30" width="40" height="30" as="geometry" />
        </mxCell>
        <mxCell id="hYAxBUHYTiUIS1AwMgqu-6" value="hiscore" style="text;html=1;align=center;verticalAlign=middle;resizable=0;points=[];autosize=1;strokeColor=none;fillColor=none;" vertex="1" parent="hYAxBUHYTiUIS1AwMgqu-5">
          <mxGeometry x="75" y="30" width="60" height="30" as="geometry" />
        </mxCell>
        <mxCell id="hYAxBUHYTiUIS1AwMgqu-8" value="" style="edgeStyle=orthogonalEdgeStyle;rounded=0;orthogonalLoop=1;jettySize=auto;html=1;" edge="1" parent="hYAxBUHYTiUIS1AwMgqu-5" source="hYAxBUHYTiUIS1AwMgqu-6" target="hYAxBUHYTiUIS1AwMgqu-7">
          <mxGeometry relative="1" as="geometry" />
        </mxCell>
      </root>
    </mxGraphModel>
  </diagram>
</mxfile>
